<?xml version="1.0" encoding="utf-8"?>
<!-- Generator: Adobe Illustrator 21.1.0, SVG Export Plug-In . SVG Version: 6.00 Build 0)  -->
<svg version="1.1" id="레이어_1" xmlns="http://www.w3.org/2000/svg" xmlns:xlink="http://www.w3.org/1999/xlink" x="0px"
	 y="0px" viewBox="0 0 258.7 171.6" style="enable-background:new 0 0 258.7 171.6;" xml:space="preserve">
<style type="text/css">
	.st0{fill:none;stroke:#000000;stroke-width:4;stroke-linecap:round;stroke-linejoin:round;stroke-miterlimit:10;}
	.st1{clip-path:url(#SVGID_2_);}
	.st2{clip-path:url(#SVGID_4_);fill:#FFFFFF;}
	.st3{clip-path:url(#SVGID_6_);}
	.st4{clip-path:url(#SVGID_8_);fill:#FFFFFF;}
	.st5{clip-path:url(#SVGID_10_);}
	.st6{clip-path:url(#SVGID_12_);fill:#FFFFFF;}
</style>
<g>
	<g>
		<line class="st0" x1="219.8" y1="32" x2="244.5" y2="19.6"/>
		<line class="st0" x1="220.7" y1="18.4" x2="244.3" y2="32.9"/>
		<line class="st0" x1="233.9" y1="11.9" x2="231.1" y2="39.4"/>
		<line class="st0" x1="146.8" y1="106" x2="160.1" y2="99.4"/>
		<line class="st0" x1="147.3" y1="98.7" x2="160" y2="106.5"/>
		<line class="st0" x1="154.4" y1="95.2" x2="152.8" y2="110"/>
		
			<rect x="89.8" y="48.3" transform="matrix(0.894 -0.4481 0.4481 0.894 -27.9813 71.0879)" class="st0" width="92.8" height="92.8"/>
		<polyline class="st0" points="199.1,115.1 256.7,86.2 241.9,56.7 210,37.6 170.2,57.5 		"/>
	</g>
	<g>
		<defs>
			<path id="SVGID_1_" d="M170.2,126.8c4,7.9,0.8,17.5-7.1,21.4c-7.9,4-17.5,0.8-21.4-7.1c-4-7.9-0.8-17.5,7.1-21.4
				C156.6,115.7,166.2,118.9,170.2,126.8"/>
		</defs>
		<clipPath id="SVGID_2_">
			<use xlink:href="#SVGID_1_"  style="overflow:visible;"/>
		</clipPath>
		<g class="st1">
			<defs>
				<rect id="SVGID_3_" x="-1276" y="-1449" width="1920" height="2756"/>
			</defs>
			<clipPath id="SVGID_4_">
				<use xlink:href="#SVGID_3_"  style="overflow:visible;"/>
			</clipPath>
			<rect x="134.9" y="112.9" class="st2" width="42" height="42"/>
		</g>
	</g>
	<g>
		<ellipse transform="matrix(0.894 -0.4481 0.4481 0.894 -43.4745 84.054)" class="st0" cx="155.9" cy="133.9" rx="16" ry="16"/>
	</g>
	<g>
		<defs>
			<path id="SVGID_5_" d="M241,91.3c4,7.9,0.8,17.5-7.1,21.4c-7.9,4-17.5,0.8-21.4-7.1c-4-7.9-0.8-17.5,7.1-21.4
				C227.5,80.2,237.1,83.4,241,91.3"/>
		</defs>
		<clipPath id="SVGID_6_">
			<use xlink:href="#SVGID_5_"  style="overflow:visible;"/>
		</clipPath>
		<g class="st3">
			<defs>
				<rect id="SVGID_7_" x="-1276" y="-1449" width="1920" height="2756"/>
			</defs>
			<clipPath id="SVGID_8_">
				<use xlink:href="#SVGID_7_"  style="overflow:visible;"/>
			</clipPath>
			<rect x="205.8" y="77.4" class="st4" width="42" height="42"/>
		</g>
	</g>
	<g>
		<ellipse transform="matrix(0.894 -0.4481 0.4481 0.894 -20.0594 112.0311)" class="st0" cx="226.7" cy="98.4" rx="16" ry="16"/>
	</g>
	<g>
		<defs>
			<line id="SVGID_9_" x1="115.6" y1="157" x2="156.9" y2="32.4"/>
		</defs>
		<clipPath id="SVGID_10_">
			<use xlink:href="#SVGID_9_"  style="overflow:visible;"/>
		</clipPath>
		<g class="st5">
			<defs>
				<rect id="SVGID_11_" x="-1276" y="-1449" width="1920" height="2756"/>
			</defs>
			<clipPath id="SVGID_12_">
				<use xlink:href="#SVGID_11_"  style="overflow:visible;"/>
			</clipPath>
			<rect x="110.6" y="27.4" class="st6" width="51.4" height="134.6"/>
		</g>
	</g>
	<g>
		<line class="st0" x1="115.6" y1="157" x2="156.9" y2="32.4"/>
		<polyline class="st0" points="182.4,52.1 196.6,80.4 232.5,62.4 224.6,46.5 		"/>
		<line class="st0" x1="45.4" y1="146.2" x2="108.6" y2="114.5"/>
		<line class="st0" x1="57.5" y1="118.6" x2="63.2" y2="115.7"/>
		<line class="st0" x1="2" y1="168.4" x2="7.8" y2="165.5"/>
		<line class="st0" x1="72.2" y1="111.3" x2="102.2" y2="96.2"/>
		<line class="st0" x1="13.5" y1="162.2" x2="38.3" y2="149.8"/>
		<line class="st0" x1="14.4" y1="148.6" x2="38" y2="163.1"/>
		<line class="st0" x1="27.7" y1="142" x2="24.8" y2="169.6"/>
		<line class="st0" x1="13.5" y1="162.2" x2="38.3" y2="149.8"/>
		<line class="st0" x1="14.4" y1="148.6" x2="38" y2="163.1"/>
		<line class="st0" x1="27.7" y1="142" x2="24.8" y2="169.6"/>
		<line class="st0" x1="168.8" y1="103.1" x2="197.4" y2="88.7"/>
		<line class="st0" x1="164" y1="97.3" x2="187.5" y2="85.5"/>
		<line class="st0" x1="124" y1="22.1" x2="148.7" y2="9.7"/>
		<line class="st0" x1="124.9" y1="8.5" x2="148.5" y2="23"/>
		<line class="st0" x1="138.1" y1="2" x2="135.3" y2="29.6"/>
	</g>
</g>
</svg>
