<svg xmlns="http://www.w3.org/2000/svg" width="62" height="81" viewBox="0 0 62 81">
    <g fill="none" fill-rule="evenodd">
        <g>
            <g>
                <path fill="#E5E5E5" d="M4.482 0h53.036C59.993 0 62 2.007 62 4.482v34.347c0 1.238-1.003 2.241-2.241 2.241H2.241C1.003 41.07 0 40.067 0 38.83V4.481C0 2.007 2.007 0 4.482 0z" transform="translate(-723 -106) translate(723 106)"/>
                <path fill="#FFF" d="M2.241 41.07h57.518c1.238 0 2.241 1.004 2.241 2.241v33.207C62 78.993 59.993 81 57.518 81H4.482C2.007 81 0 78.993 0 76.518V43.311c0-1.237 1.003-2.24 2.241-2.24z" transform="translate(-723 -106) translate(723 106)"/>
            </g>
        </g>
    </g>
</svg>
